<svg width="20" height="20" viewBox="0 0 20 20" fill="none" xmlns="http://www.w3.org/2000/svg">
<path d="M7 13C7 13.5523 7.44772 14 8 14C8.55229 14 9 13.5523 9 13V7C9 6.44772 8.55229 6 8 6C7.44772 6 7 6.44772 7 7V13ZM10 0C4.48 0 0 4.48 0 10C0 15.52 4.48 20 10 20C15.52 20 20 15.52 20 10C20 4.48 15.52 0 10 0ZM10 18C5.59 18 2 14.41 2 10C2 5.59 5.59 2 10 2C14.41 2 18 5.59 18 10C18 14.41 14.41 18 10 18ZM11 13C11 13.5523 11.4477 14 12 14C12.5523 14 13 13.5523 13 13V7C13 6.44772 12.5523 6 12 6C11.4477 6 11 6.44772 11 7V13Z" fill="#E30B13"/>
</svg>
