<?xml version="1.0" encoding="utf-8"?>
<!-- Generator: Adobe Illustrator 19.0.1, SVG Export Plug-In . SVG Version: 6.00 Build 0)  -->
<svg version="1.1" id="Layer_1" xmlns="http://www.w3.org/2000/svg" xmlns:xlink="http://www.w3.org/1999/xlink" x="0px" y="0px"
	 viewBox="-287 410.9 20 20" style="enable-background:new -287 410.9 20 20;" xml:space="preserve">
<style type="text/css">
	.st0{fill:#E30B13;}
</style>
<path class="st0" d="M-280,423.9c0,0.6,0.4,1,1,1s1-0.4,1-1v-6c0-0.6-0.4-1-1-1s-1,0.4-1,1V423.9z M-277,410.9c-5.5,0-10,4.5-10,10
	c0,5.5,4.5,10,10,10s10-4.5,10-10C-267,415.4-271.5,410.9-277,410.9z M-277,428.9c-4.4,0-8-3.6-8-8c0-4.4,3.6-8,8-8s8,3.6,8,8
	C-269,425.3-272.6,428.9-277,428.9z M-274.2,421.6c0.5,0.3,1.1,0.1,1.4-0.4s0.1-1.1-0.4-1.4l-5.2-2.9c-0.5-0.3-1.1-0.1-1.4,0.4
	c-0.3,0.5-0.1,1.1,0.4,1.4L-274.2,421.6z M-273.2,421.9c0.5-0.3,0.7-0.9,0.4-1.4c-0.3-0.5-0.9-0.7-1.4-0.4l-5.2,2.9
	c-0.5,0.3-0.7,0.9-0.4,1.4c0.3,0.5,0.9,0.7,1.4,0.4L-273.2,421.9z"/>
</svg>
